<!-- /assets/icons_svg.svg -->
<svg aria-hidden="true" style="position:absolute;width:0;height:0;overflow:hidden">
  <!-- ========== UI (top bar + meta) ========== -->
  <symbol id="i-bookmark" viewBox="0 0 24 24" fill="none" stroke="currentColor" stroke-width="2" stroke-linecap="round" stroke-linejoin="round" >
    <path d="M0 0h24v24H0z" fill="none"/>
    <path d="M18 7v14l-6 -4l-6 4v-14a4 4 0 0 1 4 -4h4a4 4 0 0 1 4 4z" />
  </symbol>

  <symbol id="i-share" viewBox="0 0 24 24" fill="none" stroke="currentColor" stroke-width="2" stroke-linecap="round" stroke-linejoin="round" >
    <path d="M0 0h24v24H0z" fill="none"/>
    <circle cx="6" cy="12" r="3" />
    <circle cx="18" cy="6" r="3" />
    <circle cx="18" cy="18" r="3" />
    <path d="M8.7 10.7l6.6 -3.4" />
    <path d="M8.7 13.3l6.6 3.4" />
  </symbol>

  <!-- FIX: use outline 'printer' (stroke) for print -->
  <symbol id="i-print" viewBox="0 0 24 24" fill="none" stroke="currentColor" stroke-width="2" stroke-linecap="round" stroke-linejoin="round">
    <path d="M0 0h24v24H0z" fill="none"/>
    <rect x="6" y="13" width="12" height="8" rx="2"/>
    <path d="M6 17h12"/>
    <path d="M6 9V4a1 1 0 0 1 1 -1h10a1 1 0 0 1 1 1v5"/>
    <path d="M18 9h1a3 3 0 0 1 3 3v1H2v-1a3 3 0 0 1 3 -3h1"/>
  </symbol>

  <symbol id="i-compass" viewBox="0 0 24 24" fill="none" stroke="currentColor" stroke-width="2" stroke-linecap="round" stroke-linejoin="round" >
    <path d="M0 0h24v24H0z" fill="none"/>
    <circle cx="12" cy="12" r="9"/>
    <path d="M8 16l2 -6l6 -2l-2 6l-6 2" />
  </symbol>

  <symbol id="i-sun" viewBox="0 0 24 24" fill="none" stroke="currentColor" stroke-width="2" stroke-linecap="round" stroke-linejoin="round" >
    <path d="M0 0h24v24H0z" fill="none"/>
    <circle cx="12" cy="12" r="4"/>
    <path d="M3 12h1m8 -9v1m8 8h1m-9 8v1m-6.4 -15.4l.7 .7m12.1 -.7l-.7 .7m0 11.4l.7 .7m-12.1 -.7l-.7 .7" />
  </symbol>

  <symbol id="i-pin" viewBox="0 0 24 24" fill="none" stroke="currentColor" stroke-width="2" stroke-linecap="round" stroke-linejoin="round" >
    <path d="M0 0h24v24H0z" fill="none"/>
    <circle cx="12" cy="11" r="3"/>
    <path d="M17.657 16.657l-4.243 4.243a2 2 0 0 1 -2.827 0l-4.244 -4.243a8 8 0 1 1 11.314 0z" />
  </symbol>

  <!-- FIX: use outline 'calendar' (stroke) -->
  <symbol id="i-calendar" viewBox="0 0 24 24" fill="none" stroke="currentColor" stroke-width="2" stroke-linecap="round" stroke-linejoin="round">
    <path d="M0 0h24v24H0z" fill="none"/>
    <rect x="3" y="5" width="18" height="16" rx="2"/>
    <path d="M16 3v4M8 3v4M3 11h18"/>
  </symbol>

  <symbol id="i-download" viewBox="0 0 24 24" fill="none" stroke="currentColor" stroke-width="2" stroke-linecap="round" stroke-linejoin="round" >
    <path d="M0 0h24v24H0z" fill="none"/>
    <path d="M4 17v2a2 2 0 0 0 2 2h12a2 2 0 0 0 2 -2v-2" />
    <path d="M7 11l5 5l5 -5" />
    <path d="M12 4v12" />
  </symbol>

  <symbol id="i-external" viewBox="0 0 24 24" fill="none" stroke="currentColor" stroke-width="2" stroke-linecap="round" stroke-linejoin="round" >
    <path d="M0 0h24v24H0z" fill="none"/>
    <path d="M12 6h-6a2 2 0 0 0 -2 2v10a2 2 0 0 0 2 2h10a2 2 0 0 0 2 -2v-6" />
    <path d="M11 13l9 -9" />
    <path d="M15 4h5v5" />
  </symbol>

  <!-- ========== Section headers (h-*) ========== -->
  <symbol id="h-permits" viewBox="0 0 24 24" fill="none" stroke="currentColor" stroke-width="2" stroke-linecap="round" stroke-linejoin="round">
    <path d="M0 0h24v24H0z" fill="none"/>
    <path d="M15 21h-9a3 3 0 0 1 -3 -3v-1h10v2a2 2 0 0 0 4 0v-14a2 2 0 1 1 2 2h-2m2 -4h-11a3 3 0 0 0 -3 3v11" />
    <path d="M9 7h4" />
    <path d="M9 11h4" />
  </symbol>

  <symbol id="h-shuttle" viewBox="0 0 24 24" fill="none" stroke="currentColor" stroke-width="2" stroke-linecap="round" stroke-linejoin="round">
    <path d="M0 0h24v24H0z" fill="none"/>
    <circle cx="7" cy="17" r="2" />
    <circle cx="17" cy="17" r="2" />
    <path d="M9 17h6" />
    <path d="M19 17h1a1 1 0 0 0 1 -1v-4.528a2 2 0 0 0 -.211 -.894l-.96 -1.92a3 3 0 0 0 -2.683 -1.658h-11.146a3 3 0 0 0 -3 3v6a1 1 0 0 0 1 1h1" />
    <path d="M3 12h18" />
    <path d="M15 12v-5" />
    <rect x="4.5" y="3.5" width="10" height="3" rx="1.5" />
  </symbol>

  <symbol id="h-timeline" viewBox="0 0 24 24" fill="none" stroke="currentColor" stroke-width="2" stroke-linecap="round" stroke-linejoin="round">
    <path d="M0 0h24v24H0z" fill="none"/>
    <circle cx="12" cy="20" r="2" />
    <path d="M10 20h-6M14 20h6" />
    <path d="M12 15l-2 -2h-3a1 1 0 0 1 -1 -1v-8a1 1 0 0 1 1 -1h10a1 1 0 0 1 1 1v8a1 1 0 0 1 -1 1h-3z" />
    <path d="M13.5 9.5l-3 -3M10.5 9.5l3 -3" />
  </symbol>

  <symbol id="h-multitrail" viewBox="0 0 24 24" fill="none" stroke="currentColor" stroke-width="2" stroke-linecap="round" stroke-linejoin="round">
    <path d="M0 0h24v24H0z" fill="none"/>
    <path d="M14 5a2 2 0 0 0 -2 2v10a2 2 0 0 1 -2 2" />
    <rect x="3" y="17" width="4" height="4" />
    <rect x="17" y="3" width="4" height="4" />
  </symbol>

  <!-- FIX: use outline 'keyframes' (stroke) -->
  <symbol id="h-considerations" viewBox="0 0 24 24" fill="none" stroke="currentColor" stroke-width="2" stroke-linecap="round" stroke-linejoin="round">
    <path d="M0 0h24v24H0z" fill="none"/>
    <rect x="2" y="5" width="8" height="14" rx="2" />
    <rect x="14" y="5" width="8" height="14" rx="2" />
    <path d="M10 9h4M10 15h4" />
  </symbol>

  <symbol id="h-itinerary" viewBox="0 0 24 24" fill="none" stroke="currentColor" stroke-width="2" stroke-linecap="round" stroke-linejoin="round" >
    <path d="M0 0h24v24H0z" fill="none"/>
    <path d="M12 18.5l-3 -1.5l-6 3v-13l6 -3l6 3l6 -3v8" />
    <path d="M9 4v13" />
    <path d="M15 7v6.5" />
    <circle cx="19" cy="19" r="2"/>
    <path d="M19 15.5v1.5M19 21v1.5M22.032 17.25l-1.299 .75M17.27 20l-1.3 .75M15.97 17.25l1.3 .75M20.733 20l1.3 .75" />
  </symbol>

  <symbol id="h-gpx" viewBox="0 0 24 24" fill="none" stroke="currentColor" stroke-width="2" stroke-linecap="round" stroke-linejoin="round" >
    <path d="M0 0h24v24H0z" fill="none"/>
    <path d="M3 7l6 -3l6 3l6 -3v13l-6 3l-6 -3l-6 3v-13" />
    <path d="M9 12v.01M6 13v.01" />
    <path d="M17 15l-4 -4M13 15l4 -4" />
  </symbol>

  <symbol id="h-campsite" viewBox="0 0 24 24" fill="none" stroke="currentColor" stroke-width="2" stroke-linecap="round" stroke-linejoin="round" >
    <path d="M0 0h24v24H0z" fill="none"/>
    <path d="M11 14l4 6h6l-9 -16l-9 16h6l4 -6" />
  </symbol>

  <symbol id="h-weather" viewBox="0 0 24 24" fill="none" stroke="currentColor" stroke-width="2" stroke-linecap="round" stroke-linejoin="round" >
    <path d="M0 0h24v24H0z" fill="none"/>
    <path d="M7 18a4.6 4.4 0 0 1 0 -9a5 4.5 0 0 1 11 2h1a3.5 3.5 0 0 1 0 7h-1" />
    <path d="M13 14l-2 4h3l-2 4" />
  </symbol>

  <symbol id="h-gear" viewBox="0 0 24 24" fill="none" stroke="currentColor" stroke-width="2" stroke-linecap="round" stroke-linejoin="round" >
    <path d="M0 0h24v24H0z" fill="none"/>
    <path d="M3.5 5.5l1.5 1.5l2.5 -2.5" />
    <path d="M3.5 11.5l1.5 1.5l2.5 -2.5" />
    <path d="M3.5 17.5l1.5 1.5l2.5 -2.5" />
    <path d="M11 6h9M11 12h9M11 18h9" />
  </symbol>

  <symbol id="h-optional" viewBox="0 0 24 24" fill="none" stroke="currentColor" stroke-width="2" stroke-linecap="round" stroke-linejoin="round" >
    <path d="M0 0h24v24H0z" fill="none"/>
    <rect x="4" y="8" width="4" height="4" />
    <path d="M6 4v4M6 12v8" />
    <rect x="10" y="14" width="4" height="4" />
    <path d="M12 4v10M12 18v2" />
    <rect x="16" y="5" width="4" height="4" />
    <path d="M18 4v1M18 9v11" />
  </symbol>

  <symbol id="h-risk" viewBox="0 0 24 24" fill="none" stroke="currentColor" stroke-width="2" stroke-linecap="round" stroke-linejoin="round" >
    <path d="M0 0h24v24H0z" fill="none"/>
    <path d="M15.04 19.745c-.942 .551 -1.964 .976 -3.04 1.255a12 12 0 0 1 -8.5 -15a12 12 0 0 0 8.5 -3a12 12 0 0 0 8.5 3a12 12 0 0 1 .195 6.015" />
    <path d="M19 16v3M19 22h.01" />
  </symbol>

  <symbol id="h-conditions" viewBox="0 0 24 24" fill="none" stroke="currentColor" stroke-width="2" stroke-linecap="round" stroke-linejoin="round" >
    <path d="M0 0h24v24H0z" fill="none"/>
    <circle cx="12" cy="12" r="1" />
    <path d="M15.51 15.56a5 5 0 1 0 -3.51 1.44" />
    <path d="M18.832 17.86a9 9 0 1 0 -6.832 3.14" />
    <path d="M12 12v9" />
  </symbol>

  <symbol id="h-bailout" viewBox="0 0 24 24" fill="none" stroke="currentColor" stroke-width="2" stroke-linecap="round" stroke-linejoin="round" >
    <path d="M0 0h24v24H0z" fill="none"/>
    <path d="M13 12v.01" />
    <path d="M3 21h18" />
    <path d="M5 21v-16a2 2 0 0 1 2 -2h7.5m2.5 10.5v7.5" />
    <path d="M14 7h7m-3 -3l3 3l-3 3" />
  </symbol>

  <symbol id="h-emergency" viewBox="0 0 24 24" fill="none" stroke="currentColor" stroke-width="2" stroke-linecap="round" stroke-linejoin="round" >
    <path d="M0 0h24v24H0z" fill="none"/>
    <path d="M12 8a2 2 0 0 1 2 2v4a2 2 0 1 1 -4 0v-4a2 2 0 0 1 2 -2" />
    <path d="M17 15c.345 .6 1.258 1 2 1a2 2 0 1 0 0 -4a2 2 0 1 1 0 -4c.746 0 1.656 .394 2 1" />
    <path d="M3 15c.345 .6 1.258 1 2 1a2 2 0 1 0 0 -4a2 2 0 1 1 0 -4c.746 0 1.656 .394 2 1" />
  </symbol>

  <symbol id="h-final" viewBox="0 0 24 24" fill="none" stroke="currentColor" stroke-width="2" stroke-linecap="round" stroke-linejoin="round" >
    <path d="M0 0h24v24H0z" fill="none"/>
    <path d="M8 5h-2a2 2 0 0 0 -2 2v12a2 2 0 0 0 2 2h5.697" />
    <path d="M18 14v4h4" />
    <path d="M18 11v-4a2 2 0 0 0 -2 -2h-2" />
    <circle cx="18" cy="18" r="4" />
    <rect x="8" y="1" width="4" height="4" rx="2" />
    <path d="M8 11h4M8 15h3" />
  </symbol>

  <!-- FIX: use outline 'alert-triangle' (stroke) -->
  <symbol id="h-disclaimer" viewBox="0 0 24 24" fill="none" stroke="currentColor" stroke-width="2" stroke-linecap="round" stroke-linejoin="round">
    <path d="M0 0h24v24H0z" fill="none"/>
    <path d="M10.29 3.86l-8.29 14.14a2 2 0 0 0 1.71 3h16.58a2 2 0 0 0 1.71 -3l-8.29 -14.14a2 2 0 0 0 -3.42 0z"/>
    <path d="M12 9v4"/>
    <path d="M12 17h.01"/>
  </symbol>

  <!-- ========== Chips (c-*) ========== -->
  <symbol id="c-distance" viewBox="0 0 24 24" fill="none" stroke="currentColor" stroke-width="2" stroke-linecap="round" stroke-linejoin="round">
    <path d="M0 0h24v24H0z" fill="none"/>
    <rect x="3" y="8" width="18" height="8" rx="1.1"/>
    <path d="M6 8v3M9 8v2M12 8v3M15 8v2M18 8v3" />
  </symbol>

  <symbol id="c-elevation" viewBox="0 0 24 24" fill="none" stroke="currentColor" stroke-width="2" stroke-linecap="round" stroke-linejoin="round">
    <path d="M0 0h24v24H0z" fill="none"/>
    <path d="M3 20h18l-6.921 -14.612a2.3 2.3 0 0 0 -4.158 0l-6.921 14.612z" />
    <path d="M7.5 11l2 2.5l2.5 -2.5l2 3l2.5 -2" />
  </symbol>

  <symbol id="c-trail" viewBox="0 0 24 24" fill="none" stroke="currentColor" stroke-width="2" stroke-linecap="round" stroke-linejoin="round">
    <path d="M0 0h24v24H0z" fill="none"/>
    <path d="M12 3v2M12 9v4M12 17v4" />
    <path d="M10 21h4" />
    <path d="M8 5v4h11l2 -2l-2 -2z" />
    <path d="M14 13v4h-8l-2 -2l2 -2z" />
  </symbol>

  <symbol id="c-terrain" viewBox="0 0 24 24" fill="none" stroke="currentColor" stroke-width="2" stroke-linecap="round" stroke-linejoin="round">
    <path d="M0 0h24v24H0z" fill="none"/>
    <circle cx="4.5" cy="9.5" r="1"/>
    <circle cx="9.5" cy="4.5" r="1"/>
    <circle cx="9.5" cy="14.5" r="1"/>
    <circle cx="4.5" cy="19.5" r="1"/>
    <circle cx="14.5" cy="9.5" r="1"/>
    <circle cx="19.5" cy="4.5" r="1"/>
    <circle cx="14.5" cy="19.5" r="1"/>
    <circle cx="19.5" cy="14.5" r="1"/>
  </symbol>

  <symbol id="c-decision" viewBox="0 0 24 24" fill="none" stroke="currentColor" stroke-width="2" stroke-linecap="round" stroke-linejoin="round">
    <path d="M0 0h24v24H0z" fill="none"/>
    <path d="M16 3h5v5" />
    <path d="M8 3h-5v5" />
    <path d="M21 3l-7.536 7.536a5 5 0 0 0 -1.464 3.534v6.93" />
    <path d="M6 6.01v-.01M8 8.02v-.01M10 10v.01" />
  </symbol>

  <symbol id="c-morale" viewBox="0 0 24 24" fill="none" stroke="currentColor" stroke-width="2" stroke-linecap="round" stroke-linejoin="round">
    <path d="M0 0h24v24H0z" fill="none"/>
    <rect x="3" y="7" width="18" height="13" rx="2"/>
    <circle cx="12" cy="13.5" r="3.5"/>
    <path d="M8 7l2 -3h4l2 3" />
  </symbol>

  <!-- FIX: use outline 'shield-check' (stroke) -->
  <symbol id="c-safety" viewBox="0 0 24 24" fill="none" stroke="currentColor" stroke-width="2" stroke-linecap="round" stroke-linejoin="round">
    <path d="M0 0h24v24H0z" fill="none"/>
    <path d="M12 3l8 4v5c0 5 -4 9 -8 10c-4 -1 -8 -5 -8 -10v-5z"/>
    <path d="M9 12l2 2l4 -4"/>
  </symbol>

  <symbol id="c-water" viewBox="0 0 24 24" fill="none" stroke="currentColor" stroke-width="2" stroke-linecap="round" stroke-linejoin="round">
    <path d="M0 0h24v24H0z" fill="none"/>
    <path d="M7.502 19.423c2.602 2.105 6.395 2.105 8.996 0c2.602 -2.105 3.262 -5.708 1.566 -8.546l-4.89 -7.26a1.4 1.4 0 0 0 -2.346 0l-4.893 7.26c-1.695 2.838 -1.035 6.441 1.567 8.546z" />
  </symbol>

  <symbol id="c-campsite" viewBox="0 0 24 24" fill="none" stroke="currentColor" stroke-width="2" stroke-linecap="round" stroke-linejoin="round">
    <path d="M0 0h24v24H0z" fill="none"/>
    <path d="M11 14l4 6h6l-9 -16l-9 16h6l4 -6" />
  </symbol>

  <symbol id="c-gps" viewBox="0 0 24 24" fill="none" stroke="currentColor" stroke-width="2" stroke-linecap="round" stroke-linejoin="round">
    <path d="M0 0h24v24H0z" fill="none"/>
    <circle cx="12" cy="12" r="3"/>
    <circle cx="12" cy="12" r="8"/>
    <path d="M12 2v2M12 20v2M20 12h2M2 12h2" />
  </symbol>
</svg>
