<!-- /assets/icons.svg -->
<svg xmlns="http://www.w3.org/2000/svg" style="display:none">
  <!-- ===== Header/action icons ===== -->
  <symbol id="i-bookmark" viewBox="0 0 24 24" fill="none" stroke="currentColor" stroke-width="2" stroke-linecap="round" stroke-linejoin="round">
    <path d="M6 4h12a1 1 0 0 1 1 1v15l-7-4-7 4V5a1 1 0 0 1 1-1z"/>
  </symbol>

  <symbol id="i-share" viewBox="0 0 24 24" fill="none" stroke="currentColor" stroke-width="2" stroke-linecap="round" stroke-linejoin="round">
    <circle cx="18" cy="5" r="3"/><circle cx="6" cy="12" r="3"/><circle cx="18" cy="19" r="3"/>
    <path d="M8.6 13.5 15.4 16.5M15.4 7.5 8.6 10.5"/>
  </symbol>

  <symbol id="i-print" viewBox="0 0 24 24" fill="none" stroke="currentColor" stroke-width="2" stroke-linecap="round" stroke-linejoin="round">
    <path d="M7 8V3h10v5"/><rect x="5" y="12" width="14" height="8" rx="2"/><path d="M7 12h10M7 16h10"/>
  </symbol>

  <symbol id="i-compass" viewBox="0 0 24 24" fill="none" stroke="currentColor" stroke-width="2" stroke-linecap="round" stroke-linejoin="round">
    <circle cx="12" cy="12" r="10"/><path d="m16 8-3.5 7.5L8 16l4-8z"/>
  </symbol>

  <symbol id="i-sun" viewBox="0 0 24 24" fill="none" stroke="currentColor" stroke-width="2" stroke-linecap="round" stroke-linejoin="round">
    <circle cx="12" cy="12" r="4"/>
    <path d="M12 2v2M12 20v2M4 12H2M22 12h-2M5 5l-1.5-1.5M20.5 20.5 19 19M5 19l-1.5 1.5M20.5 3.5 19 5"/>
  </symbol>

  <symbol id="i-pin" viewBox="0 0 24 24" fill="none" stroke="currentColor" stroke-width="2" stroke-linecap="round" stroke-linejoin="round">
    <path d="M12 22s7-5.4 7-12a7 7 0 1 0-14 0c0 6.6 7 12 7 12z"/><circle cx="12" cy="10" r="3"/>
  </symbol>

  <symbol id="i-calendar" viewBox="0 0 24 24" fill="none" stroke="currentColor" stroke-width="2" stroke-linecap="round" stroke-linejoin="round">
    <rect x="3" y="5" width="18" height="16" rx="2"/><path d="M16 3v4M8 3v4M3 11h18"/>
  </symbol>

  <symbol id="i-download" viewBox="0 0 24 24" fill="none" stroke="currentColor" stroke-width="2" stroke-linecap="round" stroke-linejoin="round">
    <path d="M12 3v12m0 0 4-4m-4 4-4-4"/><path d="M4 20h16"/>
  </symbol>

  <symbol id="i-external" viewBox="0 0 24 24" fill="none" stroke="currentColor" stroke-width="2" stroke-linecap="round" stroke-linejoin="round">
    <path d="M14 4h6v6"/><path d="M10 14 20 4"/><path d="M18 14v6H4V6h6"/>
  </symbol>

  <!-- ===== Chip icons (c-*) ===== -->
  <symbol id="c-distance" viewBox="0 0 24 24" fill="none" stroke="currentColor" stroke-width="2" stroke-linecap="round" stroke-linejoin="round">
    <path d="M3 12h18"/><circle cx="3" cy="12" r="2"/><circle cx="21" cy="12" r="2"/>
  </symbol>

  <symbol id="c-elevation" viewBox="0 0 24 24" fill="none" stroke="currentColor" stroke-width="2" stroke-linecap="round" stroke-linejoin="round">
    <path d="m3 17 6-8 4 5 4-6 4 9"/><path d="M3 21h18"/>
  </symbol>

  <symbol id="c-campsite" viewBox="0 0 24 24" fill="none" stroke="currentColor" stroke-width="2" stroke-linecap="round" stroke-linejoin="round">
    <path d="m12 4 8 16H4l8-16z"/><path d="M1 20h22"/>
  </symbol>

  <symbol id="c-trail" viewBox="0 0 24 24" fill="none" stroke="currentColor" stroke-width="2" stroke-linecap="round" stroke-linejoin="round">
    <path d="M3 20c6-3 12-3 18 0M3 4c6 3 12 3 18 0"/>
  </symbol>

  <symbol id="c-terrain" viewBox="0 0 24 24" fill="none" stroke="currentColor" stroke-width="2" stroke-linecap="round" stroke-linejoin="round">
    <path d="M3 18 9 6l6 12 3-6 3 6H3z"/>
  </symbol>

  <symbol id="c-water" viewBox="0 0 24 24" fill="none" stroke="currentColor" stroke-width="2" stroke-linecap="round" stroke-linejoin="round">
    <path d="M12 3s7 8 7 12a7 7 0 0 1-14 0c0-4 7-12 7-12z"/>
  </symbol>

  <symbol id="c-safety" viewBox="0 0 24 24" fill="none" stroke="currentColor" stroke-width="2" stroke-linecap="round" stroke-linejoin="round">
    <path d="M12 21c-6-2-9-5-9-9V5l9-3 9 3v7c0 4-3 7-9 9z"/>
    <path d="M9 12l2 2 4-4"/>
  </symbol>

  <symbol id="c-decision" viewBox="0 0 24 24" fill="none" stroke="currentColor" stroke-width="2" stroke-linecap="round" stroke-linejoin="round">
    <path d="M6 8h7a4 4 0 0 1 4 4v0a4 4 0 0 1-4 4H6z"/><path d="M6 8V5M6 20v-4"/>
  </symbol>

  <symbol id="c-morale" viewBox="0 0 24 24" fill="none" stroke="currentColor" stroke-width="2" stroke-linecap="round" stroke-linejoin="round">
    <circle cx="12" cy="12" r="9"/><path d="M8 14s1.5 2 4 2 4-2 4-2M9 10h0M15 10h0"/>
  </symbol>

  <symbol id="c-gps" viewBox="0 0 24 24" fill="none" stroke="currentColor" stroke-width="2" stroke-linecap="round" stroke-linejoin="round">
    <circle cx="12" cy="12" r="3"/><path d="M12 2v3M12 19v3M2 12h3M19 12h3"/>
    <circle cx="12" cy="12" r="9"/>
  </symbol>
</svg>
