<?xml version="1.0" encoding="UTF-8"?>
<svg xmlns="http://www.w3.org/2000/svg">

  <!-- ================= LOCKED UI (Top buttons) ================= -->
  <symbol id="i-bookmark" viewBox="0 0 24 24" fill="none" stroke="currentColor" stroke-width="1.8" stroke-linecap="round" stroke-linejoin="round">
    <path d="M19 21l-7-4-7 4V5a2 2 0 0 1 2-2h10a2 2 0 0 1 2 2z"/>
  </symbol>

  <symbol id="i-share" viewBox="0 0 24 24" fill="none" stroke="currentColor" stroke-width="1.8" stroke-linecap="round" stroke-linejoin="round">
    <circle cx="18" cy="5" r="3"/><circle cx="6" cy="12" r="3"/><circle cx="18" cy="19" r="3"/>
    <path d="M8.6 13.5l6.8 3.9M15.4 6.6L8.6 10.5"/>
  </symbol>

  <symbol id="i-print" viewBox="0 0 24 24" fill="none" stroke="currentColor" stroke-width="1.8" stroke-linecap="round" stroke-linejoin="round">
    <path d="M6 9V3h12v6"/><rect x="6" y="13" width="12" height="8" rx="2"/><path d="M6 17h12"/><path d="M18 9h1a3 3 0 0 1 3 3v1H2v-1a3 3 0 0 1 3-3h1"/>
  </symbol>

  <!-- ================= LOCKED UI (Header grid labels) ================= -->
  <symbol id="i-compass" viewBox="0 0 24 24" fill="none" stroke="currentColor" stroke-width="1.8" stroke-linecap="round" stroke-linejoin="round">
    <circle cx="12" cy="12" r="9"/><path d="M15.5 8.5l-3.6 1.5-1.5 3.6 3.6-1.5z"/>
  </symbol>

  <symbol id="i-sun" viewBox="0 0 24 24" fill="none" stroke="currentColor" stroke-width="1.8" stroke-linecap="round" stroke-linejoin="round">
    <circle cx="12" cy="12" r="4"/><path d="M12 2v2M12 20v2M4 12H2M22 12h-2M4.93 4.93l1.41 1.41M17.66 17.66l1.41 1.41M4.93 19.07l1.41-1.41M17.66 6.34l1.41-1.41"/>
  </symbol>

  <symbol id="i-pin" viewBox="0 0 24 24" fill="none" stroke="currentColor" stroke-width="1.8" stroke-linecap="round" stroke-linejoin="round">
    <path d="M12 21s-6-5.2-6-9.8A6 6 0 1 1 18 11.2C18 15.8 12 21 12 21z"/><circle cx="12" cy="11.2" r="2.4"/>
  </symbol>

  <symbol id="i-calendar" viewBox="0 0 24 24" fill="none" stroke="currentColor" stroke-width="1.8" stroke-linecap="round" stroke-linejoin="round">
    <rect x="3" y="5" width="18" height="16" rx="2"/><path d="M16 3v4M8 3v4M3 11h18"/>
  </symbol>

  <!-- ================= LOCKED UTILITIES (ic-*) ================= -->
  <symbol id="ic-trailhead" viewBox="0 0 24 24" fill="none" stroke="currentColor" stroke-width="2" stroke-linecap="round" stroke-linejoin="round">
    <path d="M12 2v20"/><path d="M12 6h6l-2 4h-4z"/><path d="M12 12h-6l2 4h4z"/>
  </symbol>

  <symbol id="ic-distance" viewBox="0 0 24 24" fill="none" stroke="currentColor" stroke-width="2" stroke-linecap="round" stroke-linejoin="round">
    <circle cx="5" cy="12" r="2"/><circle cx="19" cy="12" r="2"/>
    <path d="M7 12c4 0 6-4 10-4"/><path d="M7 12c4 0 6 4 10 4"/>
  </symbol>

  <symbol id="ic-elevation" viewBox="0 0 24 24" fill="none" stroke="currentColor" stroke-width="2" stroke-linecap="round" stroke-linejoin="round">
    <path d="M3 17l6-6 4 4 8-8"/><path d="M14 7h7v7"/>
  </symbol>

  <symbol id="ic-gps" viewBox="0 0 24 24" fill="none" stroke="currentColor" stroke-width="2" stroke-linecap="round" stroke-linejoin="round">
    <circle cx="12" cy="12" r="3"/><path d="M12 2v2"/><path d="M12 20v2"/><path d="M2 12h2"/><path d="M20 12h2"/>
  </symbol>

  <!-- ================= LOCKED DAY CHIPS (c-*) ================= -->
  <symbol id="c-distance" viewBox="0 0 24 24" fill="none" stroke="currentColor" stroke-width="2" stroke-linecap="round" stroke-linejoin="round">
    <circle cx="5" cy="12" r="2"/><circle cx="19" cy="12" r="2"/><path d="M7 12h10"/>
  </symbol>

  <symbol id="c-elevation" viewBox="0 0 24 24" fill="none" stroke="currentColor" stroke-width="2" stroke-linecap="round" stroke-linejoin="round">
    <path d="M3 17l6-6 4 4 8-8"/><path d="M12 7v-3"/><path d="M12 20v-3"/>
  </symbol>

  <symbol id="c-campsite" viewBox="0 0 24 24" fill="none" stroke="currentColor" stroke-width="2" stroke-linecap="round" stroke-linejoin="round">
    <path d="M3 20h18L12 4 3 20z"/>
  </symbol>

  <symbol id="c-trail" viewBox="0 0 24 24" fill="none" stroke="currentColor" stroke-width="2" stroke-linecap="round" stroke-linejoin="round">
    <path d="M12 3v18"/><path d="M6 6h12l-2.2-3H8.2z"/><path d="M18 13H6l2.2 3h7.6z"/>
  </symbol>

  <symbol id="c-terrain" viewBox="0 0 24 24" fill="none" stroke="currentColor" stroke-width="2" stroke-linecap="round" stroke-linejoin="round">
    <path d="M3 20l7-12 4 6 3-4 4 10H3z"/>
  </symbol>

  <symbol id="c-water" viewBox="0 0 24 24" fill="none" stroke="currentColor" stroke-width="2" stroke-linecap="round" stroke-linejoin="round">
    <path d="M12 3c-4 5-6 8-6 11a6 6 0 0 0 12 0c0-3-2-6-6-11z"/>
  </symbol>

  <symbol id="c-safety" viewBox="0 0 24 24" fill="none" stroke="currentColor" stroke-width="2" stroke-linecap="round" stroke-linejoin="round">
    <path d="M12 3l7 4v5c0 5-3.5 8-7 9-3.5-1-7-4-7-9V7l7-4z"/><path d="M9.5 12.5l2 2 3.5-3.5"/>
  </symbol>

  <symbol id="c-decision" viewBox="0 0 24 24" fill="none" stroke="currentColor" stroke-width="2" stroke-linecap="round" stroke-linejoin="round">
    <path d="M6 20c0-4 4-6 8-6h4"/><path d="M6 4h4"/><path d="M18 4h-4v6"/>
  </symbol>

  <symbol id="c-morale" viewBox="0 0 24 24" fill="none" stroke="currentColor" stroke-width="2" stroke-linecap="round" stroke-linejoin="round">
    <rect x="3" y="7" width="18" height="13" rx="2"/><circle cx="12" cy="13.5" r="3.5"/><path d="M8 7l2-3h4l2 3"/>
  </symbol>

  <symbol id="c-gps" viewBox="0 0 24 24" fill="none" stroke="currentColor" stroke-width="2" stroke-linecap="round" stroke-linejoin="round">
    <circle cx="12" cy="12" r="2"/><path d="M12 2v3M12 19v3M2 12h3M19 12h3M4.9 4.9l2.1 2.1M17 17l2.1 2.1M4.9 19.1l2.1-2.1M17 7l2.1-2.1"/>
  </symbol>

</svg>
