<?xml version="1.0" encoding="UTF-8"?>
<svg xmlns="http://www.w3.org/2000/svg" style="display:none">

  <!-- Trailhead Icon -->
  <symbol id="ic-trailhead" viewBox="0 0 24 24" fill="none" stroke="currentColor" stroke-width="2" stroke-linecap="round" stroke-linejoin="round">
    <path d="M12 2v20" />
    <path d="M12 6h6l-2 4h-4z" />
    <path d="M12 12h-6l2 4h4z" />
  </symbol>

  <!-- Distance (Point-to-Point) Icon -->
  <symbol id="ic-distance" viewBox="0 0 24 24" fill="none" stroke="currentColor" stroke-width="2" stroke-linecap="round" stroke-linejoin="round">
    <circle cx="5" cy="12" r="2" />
    <circle cx="19" cy="12" r="2" />
    <path d="M7 12c4 0 6-4 10-4" />
    <path d="M7 12c4 0 6 4 10 4" />
  </symbol>

  <!-- Elevation Gain/Loss Icon -->
  <symbol id="ic-elevation" viewBox="0 0 24 24" fill="none" stroke="currentColor" stroke-width="2" stroke-linecap="round" stroke-linejoin="round">
    <path d="M3 17l6-6 4 4 8-8" />
    <path d="M14 7h7v7" />
  </symbol>

  <!-- GPS Icon -->
  <symbol id="ic-gps" viewBox="0 0 24 24" fill="none" stroke="currentColor" stroke-width="2" stroke-linecap="round" stroke-linejoin="round">
    <circle cx="12" cy="12" r="3" />
    <path d="M12 2v2" />
    <path d="M12 20v2" />
    <path d="M2 12h2" />
    <path d="M20 12h2" />
  </symbol>

</svg>
